{
  "accessors": [
    {
      "bufferView": 2,
      "componentType": 5126,
      "count": 65532,
      "max": [
        0.16148899495601654,
        1.72495698928833,
        0.0794060006737709
      ],
      "min": [
        -0.24627399444580078,
        0.9463179707527161,
        -0.17121200263500214
      ],
      "type": "VEC3"
    },
    {
      "bufferView": 2,
      "byteOffset": 786384,
      "componentType": 5126,
      "count": 65532,
      "max": [
        0.9999555349349976,
        0.9998422861099243,
        0.9999963045120239
      ],
      "min": [
        -0.9999991655349731,
        -0.9967672228813171,
        -0.9999865293502808
      ],
      "type": "VEC3"
    },
    {
      "bufferView": 1,
      "componentType": 5126,
      "count": 65532,
      "max": [
        3.742495059967041,
        -0.1740410327911377
      ],
      "min": [
        -0.5110710263252258,
        -2.806741952896118
      ],
      "type": "VEC2"
    },
    {
      "bufferView": 0,
      "componentType": 5125,
      "count": 366954,
      "type": "SCALAR"
    },
    {
      "bufferView": 2,
      "byteOffset": 1572768,
      "componentType": 5126,
      "count": 43844,
      "max": [
        0.24561400711536407,
        1.484197974205017,
        0.08332200348377228
      ],
      "min": [
        -0.24294300377368927,
        0.9533100128173828,
        -0.17121200263500214
      ],
      "type": "VEC3"
    },
    {
      "bufferView": 2,
      "byteOffset": 2098896,
      "componentType": 5126,
      "count": 43844,
      "max": [
        0.9999632835388184,
        0.9981316924095154,
        0.9999979734420776
      ],
      "min": [
        -0.9999299049377441,
        -0.9786844849586487,
        -0.9999997615814209
      ],
      "type": "VEC3"
    },
    {
      "bufferView": 1,
      "byteOffset": 524256,
      "componentType": 5126,
      "count": 43844,
      "max": [
        3.790199041366577,
        0.5634230375289917
      ],
      "min": [
        0.3191100060939789,
        -2.6790339946746826
      ],
      "type": "VEC2"
    },
    {
      "bufferView": 0,
      "byteOffset": 1467816,
      "componentType": 5125,
      "count": 233541,
      "type": "SCALAR"
    },
    {
      "bufferView": 2,
      "byteOffset": 2625024,
      "componentType": 5126,
      "count": 11373,
      "max": [
        0.24752399325370789,
        0.982666015625,
        0.07671800255775452
      ],
      "min": [
        -0.24671900272369385,
        0.9111779928207397,
        -0.15353499352931976
      ],
      "type": "VEC3"
    },
    {
      "bufferView": 2,
      "byteOffset": 2761500,
      "componentType": 5126,
      "count": 11373,
      "max": [
        0.9999700784683228,
        0.9183052778244019,
        0.9999337792396545
      ],
      "min": [
        -0.9999523162841797,
        -0.9999898672103882,
        -0.9999915361404419
      ],
      "type": "VEC3"
    },
    {
      "bufferView": 1,
      "byteOffset": 875008,
      "componentType": 5126,
      "count": 11373,
      "max": [
        1.8835010528564453,
        0.28563499450683594
      ],
      "min": [
        -0.5865640044212341,
        -0.6117379665374756
      ],
      "type": "VEC2"
    },
    {
      "bufferView": 0,
      "byteOffset": 2401980,
      "componentType": 5125,
      "count": 63726,
      "type": "SCALAR"
    },
    {
      "bufferView": 2,
      "byteOffset": 2897976,
      "componentType": 5126,
      "count": 30,
      "max": [
        0.025395000353455544,
        1.4894930124282837,
        0.028999999165534973
      ],
      "min": [
        -0.020455999299883842,
        1.4788650274276733,
        0.018077999353408813
      ],
      "type": "VEC3"
    },
    {
      "bufferView": 2,
      "byteOffset": 2898336,
      "componentType": 5126,
      "count": 30,
      "max": [
        0.729406476020813,
        -0.17750559747219086,
        0.883421003818512
      ],
      "min": [
        -0.4723069667816162,
        -0.6565313339233398,
        0.5846977829933167
      ],
      "type": "VEC3"
    },
    {
      "bufferView": 1,
      "byteOffset": 965992,
      "componentType": 5126,
      "count": 30,
      "max": [
        0.09697400033473969,
        -0.8298740386962891
      ],
      "min": [
        0.06025199964642525,
        -0.8398740291595459
      ],
      "type": "VEC2"
    },
    {
      "bufferView": 0,
      "byteOffset": 2656884,
      "componentType": 5125,
      "count": 96,
      "type": "SCALAR"
    },
    {
      "bufferView": 2,
      "byteOffset": 2898696,
      "componentType": 5126,
      "count": 193,
      "max": [
        0.023243000730872154,
        1.48934805393219,
        0.043129999190568924
      ],
      "min": [
        -0.021960999816656113,
        1.3656599521636963,
        0.01929200068116188
      ],
      "type": "VEC3"
    },
    {
      "bufferView": 2,
      "byteOffset": 2901012,
      "componentType": 5126,
      "count": 193,
      "max": [
        0.6167987585067749,
        0.4712194502353668,
        0.9997450113296509
      ],
      "min": [
        -0.67299884557724,
        -0.11879684031009674,
        0.7166045904159546
      ],
      "type": "VEC3"
    },
    {
      "bufferView": 1,
      "byteOffset": 966232,
      "componentType": 5126,
      "count": 193,
      "max": [
        0.12655800580978394,
        -0.6216390132904053
      ],
      "min": [
        0.062238000333309174,
        -0.7766809463500977
      ],
      "type": "VEC2"
    },
    {
      "bufferView": 0,
      "byteOffset": 2657268,
      "componentType": 5125,
      "count": 753,
      "type": "SCALAR"
    },
    {
      "bufferView": 2,
      "byteOffset": 2903328,
      "componentType": 5126,
      "count": 8426,
      "max": [
        0.007860999554395676,
        1.4672269821166992,
        -0.11394699662923813
      ],
      "min": [
        -0.004650000017136335,
        1.456415057182312,
        -0.12400399893522263
      ],
      "type": "VEC3"
    },
    {
      "bufferView": 2,
      "byteOffset": 3004440,
      "componentType": 5126,
      "count": 8426,
      "max": [
        1.0,
        1.0,
        1.0
      ],
      "min": [
        -1.0,
        -1.0,
        -1.0
      ],
      "type": "VEC3"
    },
    {
      "bufferView": 1,
      "byteOffset": 967776,
      "componentType": 5126,
      "count": 8426,
      "max": [
        -0.031074000522494316,
        1.9855610132217407
      ],
      "min": [
        -0.9910669922828674,
        1.025560975074768
      ],
      "type": "VEC2"
    },
    {
      "bufferView": 0,
      "byteOffset": 2660280,
      "componentType": 5125,
      "count": 37476,
      "type": "SCALAR"
    },
    {
      "bufferView": 2,
      "byteOffset": 3105552,
      "componentType": 5126,
      "count": 460,
      "max": [
        -0.018595000728964806,
        1.372499942779541,
        0.04745300114154816
      ],
      "min": [
        -0.024810999631881714,
        1.3623310327529907,
        0.040112998336553574
      ],
      "type": "VEC3"
    },
    {
      "bufferView": 2,
      "byteOffset": 3111072,
      "componentType": 5126,
      "count": 460,
      "max": [
        0.9962889552116394,
        0.9999740123748779,
        0.9962168335914612
      ],
      "min": [
        -0.9962820410728455,
        -0.9999788999557495,
        -0.9962865710258484
      ],
      "type": "VEC3"
    },
    {
      "bufferView": 1,
      "byteOffset": 1035184,
      "componentType": 5126,
      "count": 460,
      "max": [
        0.8117499947547913,
        1.767035961151123
      ],
      "min": [
        0.10257399827241898,
        1.0604779720306396
      ],
      "type": "VEC2"
    },
    {
      "bufferView": 0,
      "byteOffset": 2810184,
      "componentType": 5125,
      "count": 2304,
      "type": "SCALAR"
    },
    {
      "bufferView": 2,
      "byteOffset": 3116592,
      "componentType": 5126,
      "count": 460,
      "max": [
        0.000957000011112541,
        1.3665809631347656,
        0.03806599974632263
      ],
      "min": [
        -0.0032059999648481607,
        1.3563419580459595,
        0.031801000237464905
      ],
      "type": "VEC3"
    },
    {
      "bufferView": 2,
      "byteOffset": 3122112,
      "componentType": 5126,
      "count": 460,
      "max": [
        0.9962469935417175,
        0.9999732971191406,
        0.9962694644927979
      ],
      "min": [
        -0.9962289929389954,
        -0.9999755620956421,
        -0.9962779879570007
      ],
      "type": "VEC3"
    },
    {
      "bufferView": 1,
      "byteOffset": 1038864,
      "componentType": 5126,
      "count": 460,
      "max": [
        1.7841720581054688,
        1.792738914489746
      ],
      "min": [
        1.074995994567871,
        1.0861810445785522
      ],
      "type": "VEC2"
    },
    {
      "bufferView": 0,
      "byteOffset": 2819400,
      "componentType": 5125,
      "count": 2304,
      "type": "SCALAR"
    },
    {
      "bufferView": 2,
      "byteOffset": 3127632,
      "componentType": 5126,
      "count": 2400,
      "max": [
        0.02652299962937832,
        1.4910869598388672,
        0.03037000074982643
      ],
      "min": [
        -0.02265699952840805,
        1.4775580167770386,
        0.018247000873088837
      ],
      "type": "VEC3"
    },
    {
      "bufferView": 2,
      "byteOffset": 3156432,
      "componentType": 5126,
      "count": 2400,
      "max": [
        1.0,
        1.0,
        1.0
      ],
      "min": [
        -1.0,
        -0.9910789728164673,
        -1.0
      ],
      "type": "VEC3"
    },
    {
      "bufferView": 1,
      "byteOffset": 1042544,
      "componentType": 5126,
      "count": 2400,
      "max": [
        2.803934097290039,
        0.8480809926986694
      ],
      "min": [
        2.1077709197998047,
        0.15191900730133057
      ],
      "type": "VEC2"
    },
    {
      "bufferView": 0,
      "byteOffset": 2828616,
      "componentType": 5125,
      "count": 13824,
      "type": "SCALAR"
    },
    {
      "bufferView": 2,
      "byteOffset": 3185232,
      "componentType": 5126,
      "count": 16318,
      "max": [
        0.10372400283813477,
        1.4056440591812134,
        0.04988899827003479
      ],
      "min": [
        0.0031769999768584967,
        1.3107719421386719,
        0.019538000226020813
      ],
      "type": "VEC3"
    },
    {
      "bufferView": 2,
      "byteOffset": 3381048,
      "componentType": 5126,
      "count": 16318,
      "max": [
        0.7614808678627014,
        0.47590669989585876,
        0.9917590022087097
      ],
      "min": [
        -0.24820569157600403,
        -0.20479483902454376,
        0.6149845123291016
      ],
      "type": "VEC3"
    },
    {
      "bufferView": 1,
      "byteOffset": 1061744,
      "componentType": 5126,
      "count": 16318,
      "max": [
        1.0,
        1.0
      ],
      "min": [
        0.0,
        0.0
      ],
      "type": "VEC2"
    },
    {
      "bufferView": 0,
      "byteOffset": 2883912,
      "componentType": 5125,
      "count": 24576,
      "type": "SCALAR"
    },
    {
      "bufferView": 2,
      "byteOffset": 3576864,
      "componentType": 5126,
      "count": 16384,
      "max": [
        0.13873299956321716,
        1.383586049079895,
        -0.1184450015425682
      ],
      "min": [
        -0.1461859941482544,
        1.1058930158615112,
        -0.17272000014781952
      ],
      "type": "VEC3"
    },
    {
      "bufferView": 2,
      "byteOffset": 3773472,
      "componentType": 5126,
      "count": 16384,
      "max": [
        0.9925431609153748,
        0.444919615983963,
        0.9696721434593201
      ],
      "min": [
        -0.9975341558456421,
        -0.9891042113304138,
        -0.9999901056289673
      ],
      "type": "VEC3"
    },
    {
      "bufferView": 1,
      "byteOffset": 1192288,
      "componentType": 5126,
      "count": 16384,
      "max": [
        1.1304500102996826,
        1.0097529888153076
      ],
      "min": [
        -0.06748499721288681,
        -0.02056705951690674
      ],
      "type": "VEC2"
    },
    {
      "bufferView": 0,
      "byteOffset": 2982216,
      "componentType": 5125,
      "count": 24576,
      "type": "SCALAR"
    }
  ],
  "asset": {
    "extras": {
      "author": "UnderRated (https://sketchfab.com/underratedhoodie)",
      "license": "CC-BY-4.0 (http://creativecommons.org/licenses/by/4.0/)",
      "source": "https://sketchfab.com/3d-models/underrated-hoodie-9b898f0b2be344cfa07ba6b3a83708b4",
      "title": "UnderRated Hoodie"
    },
    "generator": "Sketchfab-12.64.0",
    "version": "2.0"
  },
  "bufferViews": [
    {
      "buffer": 0,
      "byteLength": 3080520,
      "name": "floatBufferViews",
      "target": 34963
    },
    {
      "buffer": 0,
      "byteLength": 1323360,
      "byteOffset": 3080520,
      "byteStride": 8,
      "name": "floatBufferViews",
      "target": 34962
    },
    {
      "buffer": 0,
      "byteLength": 3970080,
      "byteOffset": 4403880,
      "byteStride": 12,
      "name": "floatBufferViews",
      "target": 34962
    }
  ],
  "buffers": [
    {
      "byteLength": 8373960,
      "uri": "scene.bin"
    }
  ],
  "extensionsRequired": [
    "KHR_materials_pbrSpecularGlossiness"
  ],
  "extensionsUsed": [
    "KHR_materials_pbrSpecularGlossiness"
  ],
  "images": [
    {
      "uri": "textures/material_0_diffuse.png"
    },
    {
      "uri": "textures/material_1_diffuse.png"
    },
    {
      "uri": "textures/material_2_diffuse.png"
    },
    {
      "uri": "textures/material_8_diffuse.png"
    },
    {
      "uri": "textures/material_9_diffuse.png"
    }
  ],
  "materials": [
    {
      "doubleSided": true,
      "extensions": {
        "KHR_materials_pbrSpecularGlossiness": {
          "diffuseFactor": [
            1.0,
            1.0,
            1.0,
            1.0
          ],
          "diffuseTexture": {
            "index": 0
          },
          "glossinessFactor": 0.0,
          "specularFactor": [
            0.0,
            0.0,
            0.0
          ]
        }
      },
      "name": "material_0"
    },
    {
      "doubleSided": true,
      "extensions": {
        "KHR_materials_pbrSpecularGlossiness": {
          "diffuseFactor": [
            1.0,
            1.0,
            1.0,
            1.0
          ],
          "diffuseTexture": {
            "index": 1
          },
          "glossinessFactor": 0.0,
          "specularFactor": [
            0.0,
            0.0,
            0.0
          ]
        }
      },
      "name": "material_1"
    },
    {
      "doubleSided": true,
      "extensions": {
        "KHR_materials_pbrSpecularGlossiness": {
          "diffuseFactor": [
            1.0,
            1.0,
            1.0,
            1.0
          ],
          "diffuseTexture": {
            "index": 2
          },
          "glossinessFactor": 0.0,
          "specularFactor": [
            0.0,
            0.0,
            0.0
          ]
        }
      },
      "name": "material_2"
    },
    {
      "doubleSided": true,
      "extensions": {
        "KHR_materials_pbrSpecularGlossiness": {
          "diffuseFactor": [
            1.0,
            1.0,
            1.0,
            1.0
          ],
          "diffuseTexture": {
            "index": 2
          },
          "glossinessFactor": 0.0,
          "specularFactor": [
            0.0,
            0.0,
            0.0
          ]
        }
      },
      "name": "material_3"
    },
    {
      "doubleSided": true,
      "extensions": {
        "KHR_materials_pbrSpecularGlossiness": {
          "diffuseFactor": [
            1.0,
            1.0,
            1.0,
            1.0
          ],
          "glossinessFactor": 0.0,
          "specularFactor": [
            0.0,
            0.0,
            0.0
          ]
        }
      },
      "name": "material_4"
    },
    {
      "doubleSided": true,
      "extensions": {
        "KHR_materials_pbrSpecularGlossiness": {
          "diffuseFactor": [
            1.0,
            1.0,
            1.0,
            1.0
          ],
          "glossinessFactor": 0.0,
          "specularFactor": [
            0.0,
            0.0,
            0.0
          ]
        }
      },
      "name": "material_5"
    },
    {
      "doubleSided": true,
      "extensions": {
        "KHR_materials_pbrSpecularGlossiness": {
          "diffuseFactor": [
            1.0,
            1.0,
            1.0,
            1.0
          ],
          "glossinessFactor": 0.0,
          "specularFactor": [
            0.0,
            0.0,
            0.0
          ]
        }
      },
      "name": "material_6"
    },
    {
      "doubleSided": true,
      "extensions": {
        "KHR_materials_pbrSpecularGlossiness": {
          "diffuseFactor": [
            1.0,
            1.0,
            1.0,
            1.0
          ],
          "glossinessFactor": 0.0,
          "specularFactor": [
            0.0,
            0.0,
            0.0
          ]
        }
      },
      "name": "material_7"
    },
    {
      "alphaMode": "MASK",
      "doubleSided": true,
      "extensions": {
        "KHR_materials_pbrSpecularGlossiness": {
          "diffuseFactor": [
            1.0,
            1.0,
            1.0,
            1.0
          ],
          "diffuseTexture": {
            "index": 3
          },
          "glossinessFactor": 0.619608,
          "specularFactor": [
            0.21952,
            0.21952,
            0.21952
          ]
        }
      },
      "name": "material_8"
    },
    {
      "alphaMode": "MASK",
      "doubleSided": true,
      "extensions": {
        "KHR_materials_pbrSpecularGlossiness": {
          "diffuseFactor": [
            1.0,
            1.0,
            1.0,
            1.0
          ],
          "diffuseTexture": {
            "index": 4
          },
          "glossinessFactor": 0.619608,
          "specularFactor": [
            0.21952,
            0.21952,
            0.21952
          ]
        }
      },
      "name": "material_9"
    }
  ],
  "meshes": [
    {
      "name": "Object_0",
      "primitives": [
        {
          "attributes": {
            "NORMAL": 1,
            "POSITION": 0,
            "TEXCOORD_0": 2
          },
          "indices": 3,
          "material": 0,
          "mode": 4
        }
      ]
    },
    {
      "name": "Object_1",
      "primitives": [
        {
          "attributes": {
            "NORMAL": 5,
            "POSITION": 4,
            "TEXCOORD_0": 6
          },
          "indices": 7,
          "material": 0,
          "mode": 4
        }
      ]
    },
    {
      "name": "Object_2",
      "primitives": [
        {
          "attributes": {
            "NORMAL": 9,
            "POSITION": 8,
            "TEXCOORD_0": 10
          },
          "indices": 11,
          "material": 1,
          "mode": 4
        }
      ]
    },
    {
      "name": "Object_3",
      "primitives": [
        {
          "attributes": {
            "NORMAL": 13,
            "POSITION": 12,
            "TEXCOORD_0": 14
          },
          "indices": 15,
          "material": 2,
          "mode": 4
        }
      ]
    },
    {
      "name": "Object_4",
      "primitives": [
        {
          "attributes": {
            "NORMAL": 17,
            "POSITION": 16,
            "TEXCOORD_0": 18
          },
          "indices": 19,
          "material": 3,
          "mode": 4
        }
      ]
    },
    {
      "name": "Object_5",
      "primitives": [
        {
          "attributes": {
            "NORMAL": 21,
            "POSITION": 20,
            "TEXCOORD_0": 22
          },
          "indices": 23,
          "material": 4,
          "mode": 4
        }
      ]
    },
    {
      "name": "Object_6",
      "primitives": [
        {
          "attributes": {
            "NORMAL": 25,
            "POSITION": 24,
            "TEXCOORD_0": 26
          },
          "indices": 27,
          "material": 5,
          "mode": 4
        }
      ]
    },
    {
      "name": "Object_7",
      "primitives": [
        {
          "attributes": {
            "NORMAL": 29,
            "POSITION": 28,
            "TEXCOORD_0": 30
          },
          "indices": 31,
          "material": 6,
          "mode": 4
        }
      ]
    },
    {
      "name": "Object_8",
      "primitives": [
        {
          "attributes": {
            "NORMAL": 33,
            "POSITION": 32,
            "TEXCOORD_0": 34
          },
          "indices": 35,
          "material": 7,
          "mode": 4
        }
      ]
    },
    {
      "name": "Object_9",
      "primitives": [
        {
          "attributes": {
            "NORMAL": 37,
            "POSITION": 36,
            "TEXCOORD_0": 38
          },
          "indices": 39,
          "material": 8,
          "mode": 4
        }
      ]
    },
    {
      "name": "Object_10",
      "primitives": [
        {
          "attributes": {
            "NORMAL": 41,
            "POSITION": 40,
            "TEXCOORD_0": 42
          },
          "indices": 43,
          "material": 9,
          "mode": 4
        }
      ]
    }
  ],
  "nodes": [
    {
      "children": [
        1
      ],
      "matrix": [
        1.0,
        0.0,
        0.0,
        0.0,
        0.0,
        2.220446049250313e-16,
        -1.0,
        0.0,
        0.0,
        1.0,
        2.220446049250313e-16,
        0.0,
        0.0,
        0.0,
        0.0,
        1.0
      ],
      "name": "Sketchfab_model"
    },
    {
      "children": [
        2
      ],
      "name": "root"
    },
    {
      "children": [
        3
      ],
      "matrix": [
        1.0,
        0.0,
        0.0,
        0.0,
        0.0,
        2.220446049250313e-16,
        1.0,
        0.0,
        0.0,
        -1.0,
        2.220446049250313e-16,
        0.0,
        0.0,
        0.0,
        0.0,
        1.0
      ],
      "name": "GLTF_SceneRootNode"
    },
    {
      "children": [
        4,
        5,
        6,
        7,
        8,
        9,
        10,
        11,
        12,
        13,
        14
      ],
      "name": "Asset3DLoader.sceneRoot_0"
    },
    {
      "mesh": 0,
      "name": "Object_4"
    },
    {
      "mesh": 1,
      "name": "Object_5"
    },
    {
      "mesh": 2,
      "name": "Object_6"
    },
    {
      "mesh": 3,
      "name": "Object_7"
    },
    {
      "mesh": 4,
      "name": "Object_8"
    },
    {
      "mesh": 5,
      "name": "Object_9"
    },
    {
      "mesh": 6,
      "name": "Object_10"
    },
    {
      "mesh": 7,
      "name": "Object_11"
    },
    {
      "mesh": 8,
      "name": "Object_12"
    },
    {
      "mesh": 9,
      "name": "Object_13"
    },
    {
      "mesh": 10,
      "name": "Object_14"
    }
  ],
  "samplers": [
    {
      "magFilter": 9729,
      "minFilter": 9987,
      "wrapS": 10497,
      "wrapT": 10497
    }
  ],
  "scene": 0,
  "scenes": [
    {
      "name": "Sketchfab_Scene",
      "nodes": [
        0
      ]
    }
  ],
  "textures": [
    {
      "sampler": 0,
      "source": 0
    },
    {
      "sampler": 0,
      "source": 1
    },
    {
      "sampler": 0,
      "source": 2
    },
    {
      "sampler": 0,
      "source": 3
    },
    {
      "sampler": 0,
      "source": 4
    }
  ]
}
